<svg width="17" height="14" viewBox="0 0 17 14" fill="none" xmlns="http://www.w3.org/2000/svg">
<path d="M15.4375 0.96875C13.7188 -0.46875 11.1875 -0.25 9.59375 1.40625L9 2.03125L8.375 1.40625C7.09375 0.09375 4.53125 -0.71875 2.53125 0.96875C0.5625 2.65625 0.46875 5.65625 2.21875 7.46875L8.28125 13.7188C8.46875 13.9062 8.71875 14 8.96875 14C9.25 14 9.5 13.9062 9.6875 13.7188L15.75 7.46875C17.5 5.65625 17.4062 2.65625 15.4375 0.96875ZM15.0312 6.78125L9 13.0312L2.9375 6.78125C1.75 5.53125 1.5 3.1875 3.1875 1.75C4.90625 0.28125 6.90625 1.34375 7.65625 2.09375L9 3.46875L10.3125 2.09375C11.0312 1.34375 13.0625 0.28125 14.7812 1.75C16.4688 3.1875 16.2188 5.53125 15.0312 6.78125Z" fill="#D12B71"/>
</svg>
