<svg width="18" height="12" viewBox="0 0 18 12" fill="none" xmlns="http://www.w3.org/2000/svg">
<path d="M9 7C10.0938 7 11 6.125 11 5C11 3.90625 10.0938 3 9 3C8.96875 3 8.9375 3.03125 8.90625 3.03125C8.9375 3.15625 9 3.375 9 3.53125C9 4.34375 8.3125 5.03125 7.5 5.03125C7.34375 5.03125 7.125 4.96875 7 4.9375C7 4.96875 7 5 7 5C7 6.125 7.875 7 9 7ZM17.875 5.5625C16.1875 2.25 12.8125 0 9 0C5.15625 0 1.78125 2.25 0.09375 5.5625C0.03125 5.6875 0 5.875 0 6.03125C0 6.15625 0.03125 6.34375 0.09375 6.46875C1.78125 9.78125 5.15625 12 9 12C12.8125 12 16.1875 9.78125 17.875 6.46875C17.9375 6.34375 17.9688 6.15625 17.9688 6C17.9688 5.875 17.9375 5.6875 17.875 5.5625ZM9 1C11.1875 1 13 2.8125 13 5C13 7.21875 11.1875 9 9 9C6.78125 9 5 7.21875 5 5C5 2.8125 6.78125 1.03125 9 1ZM9 11C5.625 11 2.5625 9.09375 1 6C1.75 4.53125 3.5625 2.71875 5.03125 1.96875C4.375 2.8125 4 3.875 4 5C4 7.78125 6.21875 10 9 10C11.75 10 14 7.78125 14 5C14 3.875 13.5938 2.8125 12.9375 1.96875C14.4062 2.71875 16.2188 4.53125 17 6C15.4062 9.09375 12.3438 11 9 11Z" fill="#369040"/>
</svg>
