<svg width="51" height="50" viewBox="0 0 51 50" fill="none" xmlns="http://www.w3.org/2000/svg">
<path d="M24.999 39.705C33.1206 39.705 39.7045 33.1212 39.7045 24.9995C39.7045 16.8778 33.1206 10.2939 24.999 10.2939C16.8773 10.2939 10.2927 16.8778 10.2927 24.9995C10.3023 33.1178 16.8807 39.6961 24.999 39.705ZM24.999 13.2348C31.4959 13.2348 36.763 18.5026 36.763 24.9995C36.763 31.4971 31.4959 36.7642 24.999 36.7642C18.5013 36.7642 13.2342 31.4971 13.2342 24.9995C13.2418 18.5053 18.5041 13.2423 24.999 13.2348Z" fill="url(#paint0_linear)"/>
<path d="M25.0009 7.35344C25.8126 7.35344 26.471 6.69502 26.471 5.88261V1.47082C26.471 0.658415 25.8126 0 25.0009 0C24.1884 0 23.53 0.658415 23.53 1.47082V5.88261C23.53 6.69502 24.1884 7.35344 25.0009 7.35344Z" fill="url(#paint1_linear)"/>
<path d="M14.1684 9.17934C14.5777 9.87676 15.4722 10.1136 16.1724 9.70908C16.8725 9.30527 17.1155 8.41141 16.7158 7.7092L14.5099 3.88533C14.2491 3.42676 13.7625 3.14273 13.2348 3.14136C12.7065 3.14067 12.2191 3.42197 11.9563 3.87985C11.6935 4.33705 11.6956 4.90033 11.9625 5.35615L14.1684 9.17934Z" fill="url(#paint2_linear)"/>
<path d="M3.88972 14.5085L7.71291 16.7144C8.41581 17.1141 9.30967 16.8718 9.71348 16.1717C10.118 15.4715 9.88116 14.5763 9.18373 14.1677L5.35986 11.9618C4.90472 11.6949 4.34144 11.6921 3.88356 11.955C3.42637 12.2178 3.14439 12.7058 3.14576 13.2335C3.14713 13.7611 3.43048 14.2478 3.88972 14.5085Z" fill="url(#paint3_linear)"/>
<path d="M1.47082 26.4704H5.88261C6.69502 26.4704 7.35344 25.812 7.35344 24.9996C7.35344 24.1878 6.69502 23.5294 5.88261 23.5294H1.47082C0.658415 23.5294 0 24.1878 0 24.9996C0 25.812 0.658415 26.4704 1.47082 26.4704Z" fill="url(#paint4_linear)"/>
<path d="M7.70949 33.2848L3.88562 35.4906C3.42706 35.7514 3.14302 36.238 3.14234 36.7657C3.14097 37.2934 3.42227 37.7814 3.88015 38.0442C4.33803 38.307 4.90131 38.305 5.35645 38.0381L9.18032 35.8322C9.63888 35.5714 9.92292 35.0848 9.9236 34.5571C9.92497 34.0287 9.64299 33.5414 9.18579 33.2786C8.72791 33.0158 8.16463 33.0178 7.70949 33.2848Z" fill="url(#paint5_linear)"/>
<path d="M14.1684 40.8199L11.9625 44.6438C11.6956 45.099 11.6935 45.6622 11.9563 46.1201C12.2191 46.5773 12.7065 46.8593 13.2348 46.8579C13.7625 46.8572 14.2491 46.5732 14.5099 46.1146L16.7158 42.2908C17.1155 41.5879 16.8725 40.6947 16.1724 40.2902C15.4722 39.8857 14.5777 40.1225 14.1684 40.8199Z" fill="url(#paint6_linear)"/>
<path d="M23.53 44.1174V48.5292C23.53 49.3416 24.1884 50 25.0009 50C25.8126 50 26.471 49.3416 26.471 48.5292V44.1174C26.471 43.305 25.8126 42.6465 25.0009 42.6465C24.1884 42.6465 23.53 43.305 23.53 44.1174Z" fill="url(#paint7_linear)"/>
<path d="M33.8227 40.282C33.1191 40.6878 32.8782 41.5872 33.2848 42.2908L35.4906 46.1146C35.7514 46.5732 36.238 46.8572 36.7657 46.8579C37.2934 46.8593 37.7814 46.5773 38.0442 46.1201C38.307 45.6622 38.3043 45.0989 38.0374 44.6438L35.8315 40.8199C35.4256 40.117 34.5263 39.8754 33.8227 40.282Z" fill="url(#paint8_linear)"/>
<path d="M40.8242 35.8322L44.6474 38.0381C45.1032 38.305 45.6665 38.3071 46.1237 38.0443C46.5816 37.7814 46.8636 37.2934 46.8622 36.7658C46.8608 36.2381 46.5768 35.7514 46.1182 35.4907L42.295 33.2848C41.5921 32.8851 40.6983 33.128 40.2945 33.8282C39.89 34.5284 40.1268 35.4229 40.8242 35.8322Z" fill="url(#paint9_linear)"/>
<path d="M42.6477 24.9996C42.6477 25.812 43.3061 26.4704 44.1185 26.4704H48.5303C49.3427 26.4704 50.0011 25.812 50.0011 24.9996C50.0011 24.1878 49.3427 23.5294 48.5303 23.5294H44.1185C43.3061 23.5294 42.6477 24.1878 42.6477 24.9996Z" fill="url(#paint10_linear)"/>
<path d="M41.5606 16.9115C41.8193 16.9122 42.0725 16.8445 42.2963 16.7144L46.1195 14.5085C46.5788 14.2478 46.8621 13.7611 46.8635 13.2335C46.8649 12.7058 46.5829 12.2178 46.1257 11.955C45.6678 11.6921 45.1045 11.6949 44.6494 11.9618L40.8255 14.1677C40.2492 14.5003 39.9679 15.1786 40.1404 15.8219C40.3129 16.4646 40.8953 16.9115 41.5606 16.9115Z" fill="url(#paint11_linear)"/>
<path d="M33.8227 9.71798C34.5263 10.1238 35.4256 9.88292 35.8315 9.17934L38.0374 5.35615C38.3043 4.90033 38.307 4.33705 38.0442 3.87985C37.7814 3.42197 37.2934 3.14067 36.7657 3.14136C36.238 3.14273 35.7514 3.42676 35.4906 3.88533L33.2848 7.7092C32.8782 8.4121 33.1191 9.31143 33.8227 9.71798Z" fill="url(#paint12_linear)"/>
<defs>
<linearGradient id="paint0_linear" x1="24.5974" y1="42.3199" x2="25.2245" y2="9.50078" gradientUnits="userSpaceOnUse">
<stop stop-color="#006DF0"/>
<stop offset="1" stop-color="#00E7F0"/>
</linearGradient>
<linearGradient id="paint1_linear" x1="24.9604" y1="8.00721" x2="25.3517" y2="-0.182611" gradientUnits="userSpaceOnUse">
<stop stop-color="#006DF0"/>
<stop offset="1" stop-color="#00E7F0"/>
</linearGradient>
<linearGradient id="paint2_linear" x1="14.2643" y1="10.508" x2="14.4538" y2="2.96092" gradientUnits="userSpaceOnUse">
<stop stop-color="#006DF0"/>
<stop offset="1" stop-color="#00E7F0"/>
</linearGradient>
<linearGradient id="paint3_linear" x1="6.43605" y1="17.3647" x2="6.51957" y2="11.62" gradientUnits="userSpaceOnUse">
<stop stop-color="#006DF0"/>
<stop offset="1" stop-color="#00E7F0"/>
</linearGradient>
<linearGradient id="paint4_linear" x1="3.57642" y1="26.7319" x2="3.60151" y2="23.4491" gradientUnits="userSpaceOnUse">
<stop stop-color="#006DF0"/>
<stop offset="1" stop-color="#00E7F0"/>
</linearGradient>
<linearGradient id="paint5_linear" x1="6.44047" y1="38.6983" x2="6.5241" y2="32.9431" gradientUnits="userSpaceOnUse">
<stop stop-color="#006DF0"/>
<stop offset="1" stop-color="#00E7F0"/>
</linearGradient>
<linearGradient id="paint6_linear" x1="14.2643" y1="47.4594" x2="14.4538" y2="39.9123" gradientUnits="userSpaceOnUse">
<stop stop-color="#006DF0"/>
<stop offset="1" stop-color="#00E7F0"/>
</linearGradient>
<linearGradient id="paint7_linear" x1="24.9604" y1="50.6538" x2="25.3517" y2="42.4639" gradientUnits="userSpaceOnUse">
<stop stop-color="#006DF0"/>
<stop offset="1" stop-color="#00E7F0"/>
</linearGradient>
<linearGradient id="paint8_linear" x1="35.593" y1="47.4601" x2="35.7829" y2="39.9039" gradientUnits="userSpaceOnUse">
<stop stop-color="#006DF0"/>
<stop offset="1" stop-color="#00E7F0"/>
</linearGradient>
<linearGradient id="paint9_linear" x1="43.3873" y1="38.6975" x2="43.4709" y2="32.9526" gradientUnits="userSpaceOnUse">
<stop stop-color="#006DF0"/>
<stop offset="1" stop-color="#00E7F0"/>
</linearGradient>
<linearGradient id="paint10_linear" x1="46.2241" y1="26.7319" x2="46.2492" y2="23.4491" gradientUnits="userSpaceOnUse">
<stop stop-color="#006DF0"/>
<stop offset="1" stop-color="#00E7F0"/>
</linearGradient>
<linearGradient id="paint11_linear" x1="43.3844" y1="17.3696" x2="43.468" y2="11.6199" gradientUnits="userSpaceOnUse">
<stop stop-color="#006DF0"/>
<stop offset="1" stop-color="#00E7F0"/>
</linearGradient>
<linearGradient id="paint12_linear" x1="35.593" y1="10.5173" x2="35.7829" y2="2.96069" gradientUnits="userSpaceOnUse">
<stop stop-color="#006DF0"/>
<stop offset="1" stop-color="#00E7F0"/>
</linearGradient>
</defs>
</svg>
