<svg width="45" height="50" viewBox="0 0 45 50" fill="none" xmlns="http://www.w3.org/2000/svg">
<path d="M1.36051 18.9942L6.82927 17.1387L10.4425 19.2383L6.58512 20.5567C6.04802 20.752 5.75505 21.2891 5.95036 21.8262C6.14567 22.3633 6.68278 22.6563 7.21989 22.461L12.6886 20.6055L14.8371 21.7774C15.2765 22.0703 15.8625 21.9239 16.1554 21.4356C16.4484 20.9961 16.3019 20.4102 15.8136 20.1172L13.714 18.8965L12.591 13.2324C12.4445 12.6953 11.9562 12.3535 11.4191 12.4512C10.882 12.5977 10.5402 13.086 10.6379 13.6231L11.4679 17.4317L7.85466 15.3321L6.73161 9.66799C6.58512 9.13088 6.09684 8.78909 5.55973 8.88674C5.02262 9.03323 4.68083 9.52151 4.77848 10.0586L5.55973 14.0625L1.94645 12.0117C1.507 11.7188 0.921062 11.8653 0.628093 12.3535C0.335124 12.793 0.481608 13.3789 0.96989 13.6719L4.58317 15.7715L0.725749 17.0899C0.18864 17.2852 -0.104329 17.8223 0.0909834 18.3594C0.286296 18.8965 0.823405 19.1895 1.36051 18.9942Z" fill="url(#paint0_linear)"/>
<path d="M31.7801 25.0489C31.9266 24.5606 31.6825 23.9747 31.1454 23.8282L26.702 22.3633L27.3368 17.5782C27.3856 17.2852 27.288 17.0411 27.0438 16.8458C26.702 16.4063 26.0673 16.4063 25.6766 16.7481L22.161 19.8731L18.3524 16.9434C18.1571 16.7481 17.8641 16.6993 17.5712 16.7481C17.0341 16.8946 16.6923 17.3829 16.7899 17.92L17.7176 22.5098L13.2743 24.3653C13.0301 24.4629 12.8348 24.6583 12.7372 24.9512C12.5907 25.4395 12.8348 26.0254 13.3719 26.1719L17.8153 27.6368L17.1805 32.4219C17.1317 32.7149 17.2294 32.959 17.4247 33.2032C17.7665 33.6426 18.4012 33.6426 18.7919 33.3008L22.3563 30.127L26.1649 33.0567C26.3602 33.252 26.6532 33.3008 26.9462 33.252C27.4833 33.1055 27.8251 32.6172 27.7274 32.0801L26.7997 27.4903L31.243 25.6348C31.4872 25.5372 31.6825 25.3418 31.7801 25.0489ZM25.286 26.0254C24.8466 26.2208 24.6024 26.709 24.7001 27.1485L25.2372 29.9317L22.8446 28.125C22.454 27.7833 21.9169 27.8321 21.5751 28.1739L19.4266 30.0782L19.8173 27.0997C19.9149 26.6114 19.5731 26.1719 19.1337 26.0254L16.4481 25.1465L19.2313 24.0235C19.6708 23.8282 19.9149 23.3399 19.8173 22.9004L19.2313 20.0684L21.6239 21.875C22.0145 22.2168 22.5516 22.168 22.8934 21.8262L25.0419 19.9219L24.6512 22.9004C24.6024 23.3887 24.8954 23.8282 25.3837 24.0235L28.0692 24.9024L25.286 26.0254Z" fill="url(#paint1_linear)"/>
<path d="M18.2061 9.22851C17.8155 8.88672 17.1807 8.93555 16.8389 9.32617C16.4971 9.7168 16.546 10.3516 16.9366 10.6934L21.2823 14.502V16.8945C21.2823 17.4316 21.7217 17.8711 22.2588 17.8711C22.796 17.8711 23.2354 17.4316 23.2354 16.8945V14.502L27.5811 10.6934C27.9717 10.3516 28.0206 9.7168 27.6788 9.32617C27.337 8.93555 26.7022 8.88672 26.3116 9.22851L23.2354 11.9141V7.71484L27.5811 3.90625C27.9717 3.56445 28.0206 2.92969 27.6788 2.53906C27.337 2.14844 26.7022 2.09961 26.3116 2.44141L23.2354 5.12695V0.976562C23.2354 0.439453 22.796 0 22.2588 0C21.7217 0 21.2823 0.439453 21.2823 0.976562V5.12695L18.2061 2.44141C17.8155 2.09961 17.1807 2.14844 16.8389 2.53906C16.4971 2.92969 16.546 3.56445 16.9366 3.90625L21.2823 7.71484V11.9141L18.2061 9.22851Z" fill="url(#paint2_linear)"/>
<path d="M14.788 28.1738L12.6884 29.3945L7.2196 27.4902C6.68249 27.3437 6.14538 27.5879 5.95007 28.125C5.80358 28.6621 6.04773 29.1992 6.58484 29.3945L10.3934 30.6152L6.78015 32.7148L1.3114 30.8594C0.774288 30.7129 0.237179 30.957 0.0418662 31.4941C-0.104618 31.9824 0.139523 32.5195 0.676632 32.7148L4.53405 34.0332L0.920773 36.1328C0.481319 36.377 0.286007 36.9629 0.578976 37.4512C0.823116 37.8906 1.40905 38.0859 1.89734 37.793L5.51062 35.7422L4.72937 39.7461C4.63171 40.2832 4.97351 40.8203 5.51062 40.918C6.04773 41.0156 6.58483 40.6738 6.68249 40.1367L7.75671 34.4238L11.37 32.3242L10.5887 36.3281C10.4911 36.8652 10.8329 37.4023 11.37 37.5C11.9071 37.5977 12.4442 37.2559 12.5419 36.7187L13.6649 31.0547L15.7645 29.834C16.204 29.5898 16.3993 29.0039 16.1063 28.5156C15.8622 28.0762 15.2762 27.8809 14.788 28.1738Z" fill="url(#paint3_linear)"/>
<path d="M43.8405 17.2852L39.9831 15.9668L43.5963 13.8672C44.0358 13.6231 44.2311 13.0371 43.9381 12.5489C43.694 12.1094 43.1081 11.9141 42.6198 12.2071L39.0065 14.2578L39.7877 10.2539C39.8854 9.71682 39.5436 9.17971 39.0065 9.08206C38.4694 8.9844 37.9323 9.3262 37.8346 9.86331L36.7604 15.5762L33.1471 17.6758L33.9284 13.6719C34.026 13.1348 33.6842 12.5977 33.1471 12.5C32.61 12.4024 32.0729 12.7442 31.9752 13.2813L30.8522 18.9453L28.7526 20.166C28.3131 20.4102 28.1178 20.9961 28.4108 21.4844C28.6549 21.9239 29.2409 22.1192 29.7291 21.8262L31.8288 20.6055L37.3463 22.5098C37.8346 22.6563 38.3717 22.4121 38.567 21.875C38.7135 21.3379 38.4694 20.8008 37.9323 20.6055L34.1237 19.4336L37.737 17.334L43.2057 19.1895C43.7428 19.336 44.2799 19.0918 44.4752 18.5547C44.6217 18.0176 44.3776 17.4805 43.8405 17.2852Z" fill="url(#paint4_linear)"/>
<path d="M43.1083 31.0547L37.6396 32.9102L34.0263 30.8106L37.8837 29.4922C38.4208 29.2969 38.7138 28.7598 38.5185 28.2227C38.372 27.6856 37.8349 27.3926 37.2978 27.5879L31.829 29.4434L29.7294 28.2227C29.29 27.9297 28.704 28.0762 28.4111 28.5645C28.1181 29.0039 28.2646 29.5899 28.7529 29.8829L30.8036 31.1036L31.9267 36.7676C32.0732 37.3047 32.5615 37.6465 33.0986 37.5489C33.6357 37.4024 33.9775 36.9141 33.8798 36.377L33.0009 32.5684L36.6142 34.668L37.7372 40.3321C37.8837 40.8692 38.372 41.211 38.9091 41.1133C39.4462 40.9668 39.788 40.4786 39.6904 39.9414L38.9091 35.9375L42.5224 37.9883C42.9618 38.2813 43.5478 38.1348 43.8407 37.6465C44.1337 37.2071 43.9872 36.6211 43.499 36.3282L39.8857 34.2286L43.7431 32.9102C44.2802 32.7637 44.5732 32.2266 44.3779 31.6895C44.1825 31.1524 43.6454 30.8594 43.1083 31.0547Z" fill="url(#paint5_linear)"/>
<path d="M26.3116 40.7715C26.7022 41.1133 27.337 41.0645 27.6788 40.6738C28.0206 40.2832 27.9717 39.6484 27.5811 39.3066L23.2354 35.498V33.1055C23.2354 32.5684 22.796 32.1289 22.2588 32.1289C21.7217 32.1289 21.2823 32.5684 21.2823 33.1055V35.498L16.9366 39.3066C16.546 39.6484 16.4971 40.2832 16.8389 40.6738C17.1807 41.0645 17.8155 41.1133 18.2061 40.7715L21.2823 38.0859V42.2852L16.9366 46.0937C16.546 46.4355 16.4971 47.0703 16.8389 47.4609C17.1807 47.8516 17.8155 47.9004 18.2061 47.5586L21.2823 44.873V49.0234C21.2823 49.5605 21.7217 50 22.2588 50C22.796 50 23.2354 49.5605 23.2354 49.0234V44.873L26.3116 47.5586C26.7022 47.9004 27.337 47.8516 27.6788 47.4609C28.0206 47.0703 27.9717 46.4355 27.5811 46.0937L23.2354 42.2852V38.0859L26.3116 40.7715Z" fill="url(#paint6_linear)"/>
<defs>
<linearGradient id="paint0_linear" x1="7.94601" y1="23.7354" x2="8.1902" y2="8.50031" gradientUnits="userSpaceOnUse">
<stop stop-color="#006DF0"/>
<stop offset="1" stop-color="#00E7F0"/>
</linearGradient>
<linearGradient id="paint1_linear" x1="21.9978" y1="35.0614" x2="22.3216" y2="16.0417" gradientUnits="userSpaceOnUse">
<stop stop-color="#006DF0"/>
<stop offset="1" stop-color="#00E7F0"/>
</linearGradient>
<linearGradient id="paint2_linear" x1="22.1048" y1="19.46" x2="22.7072" y2="-0.471023" gradientUnits="userSpaceOnUse">
<stop stop-color="#006DF0"/>
<stop offset="1" stop-color="#00E7F0"/>
</linearGradient>
<linearGradient id="paint3_linear" x1="7.90122" y1="42.1336" x2="8.13997" y2="27.083" gradientUnits="userSpaceOnUse">
<stop stop-color="#006DF0"/>
<stop offset="1" stop-color="#00E7F0"/>
</linearGradient>
<linearGradient id="paint4_linear" x1="36.1727" y1="23.7507" x2="36.4115" y2="8.70002" gradientUnits="userSpaceOnUse">
<stop stop-color="#006DF0"/>
<stop offset="1" stop-color="#00E7F0"/>
</linearGradient>
<linearGradient id="paint5_linear" x1="36.129" y1="42.3393" x2="36.3729" y2="27.1588" gradientUnits="userSpaceOnUse">
<stop stop-color="#006DF0"/>
<stop offset="1" stop-color="#00E7F0"/>
</linearGradient>
<linearGradient id="paint6_linear" x1="22.1048" y1="51.5889" x2="22.7072" y2="31.6579" gradientUnits="userSpaceOnUse">
<stop stop-color="#006DF0"/>
<stop offset="1" stop-color="#00E7F0"/>
</linearGradient>
</defs>
</svg>
