<svg width="15" height="15" viewBox="0 0 15 15" fill="none" xmlns="http://www.w3.org/2000/svg">
<path d="M14.1504 0.724609L12.627 2.24805C11.3086 0.929688 9.49219 0.109375 7.5 0.109375C3.60352 0.109375 0.410156 3.18555 0.234375 7.02344C0.205078 7.22852 0.380859 7.375 0.585938 7.375H1.40625C1.58203 7.375 1.72852 7.25781 1.75781 7.05273C1.93359 4.03516 4.42383 1.63281 7.5 1.63281C9.08203 1.63281 10.5176 2.27734 11.543 3.33203L9.96094 4.91406C9.72656 5.14844 9.90234 5.5 10.1953 5.5H14.4141C14.5898 5.5 14.7656 5.35352 14.7656 5.14844V0.958984C14.7656 0.666016 14.3848 0.490234 14.1504 0.724609ZM14.3848 7.375H13.5645C13.3887 7.375 13.2422 7.52148 13.2129 7.72656C13.0371 10.7441 10.5469 13.1172 7.5 13.1172C5.88867 13.1172 4.45312 12.502 3.42773 11.4473L5.00977 9.86523C5.24414 9.63086 5.06836 9.25 4.77539 9.25H0.585938C0.380859 9.25 0.234375 9.42578 0.234375 9.60156V13.8203C0.234375 14.1133 0.585938 14.2891 0.820312 14.0547L2.34375 12.5312C3.66211 13.8496 5.47852 14.6406 7.5 14.6406C11.3672 14.6406 14.5605 11.5938 14.7363 7.75586C14.7656 7.55078 14.5898 7.375 14.3848 7.375Z" fill="#369040"/>
</svg>
