<svg width="50" height="50" viewBox="0 0 50 50" fill="none" xmlns="http://www.w3.org/2000/svg">
<g filter="url(#filter0_d)">
<rect x="5" y="3" width="40" height="40" fill="#006BB4"/>
</g>
<path d="M32.5938 14.3984L28.9219 13.5781C28.0625 13.3828 27.2031 13.8125 26.8906 14.5938L25.1719 18.5781C24.8594 19.2812 25.0547 20.1406 25.6797 20.6484L27.2422 21.9375C26.1484 23.9688 24.4297 25.6484 22.3984 26.7812L21.1094 25.2188C20.6016 24.5938 19.7422 24.3984 19.0391 24.7109L15.0547 26.3906C14.2734 26.7422 13.8438 27.6016 14.0391 28.4609L14.8594 32.1328C15.0547 32.9531 15.7969 33.5 16.6172 33.5C26.1875 33.5 34 25.7656 34 16.1562C34 15.3359 33.4141 14.5938 32.5938 14.3984ZM16.6953 31.625L15.875 28.1094L19.7031 26.4688L21.8906 29.125C25.7578 27.2891 27.75 25.2969 29.5859 21.4297L26.9297 19.2422L28.5703 15.4141L32.125 16.2344C32.0859 24.7109 25.1719 31.5859 16.6953 31.625Z" fill="white"/>
<defs>
<filter id="filter0_d" x="0" y="0" width="50" height="50" filterUnits="userSpaceOnUse" color-interpolation-filters="sRGB">
<feFlood flood-opacity="0" result="BackgroundImageFix"/>
<feColorMatrix in="SourceAlpha" type="matrix" values="0 0 0 0 0 0 0 0 0 0 0 0 0 0 0 0 0 0 127 0"/>
<feOffset dy="2"/>
<feGaussianBlur stdDeviation="2.5"/>
<feColorMatrix type="matrix" values="0 0 0 0 0 0 0 0 0 0 0 0 0 0 0 0 0 0 0.19 0"/>
<feBlend mode="normal" in2="BackgroundImageFix" result="effect1_dropShadow"/>
<feBlend mode="normal" in="SourceGraphic" in2="effect1_dropShadow" result="shape"/>
</filter>
</defs>
</svg>
