<svg width="14" height="16" viewBox="0 0 14 16" fill="none" xmlns="http://www.w3.org/2000/svg">
<path d="M13.5312 2.0625L11.9375 0.46875C11.6875 0.21875 11.2188 0 10.875 0H5.5C4.65625 0 4 0.6875 4 1.5V3H1.5C0.65625 3 0 3.6875 0 4.5V14.5C0 15.3438 0.65625 16 1.5 16H8.5C9.3125 16 10 15.3438 10 14.5V13H12.5C13.3125 13 14 12.3438 14 11.5V3.125C14 2.78125 13.7812 2.3125 13.5312 2.0625ZM11 1.03125C11.0625 1.0625 11.1562 1.09375 11.2188 1.15625L12.8438 2.78125C12.9062 2.84375 12.9375 2.9375 12.9688 3H11V1.03125ZM9 14.5C9 14.7812 8.75 15 8.5 15H1.5C1.21875 15 1 14.7812 1 14.5V4.5C1 4.25 1.21875 4 1.5 4H4V11.5C4 12.3438 4.65625 13 5.5 13H9V14.5ZM13 11.5C13 11.7812 12.75 12 12.5 12H5.5C5.21875 12 5 11.7812 5 11.5V1.5C5 1.25 5.21875 1 5.5 1H10V3.25C10 3.6875 10.3125 4 10.75 4H13V11.5Z" fill="#369040"/>
</svg>
