<svg width="19" height="14" viewBox="0 0 19 14" fill="none" xmlns="http://www.w3.org/2000/svg">
<path d="M17.625 11.0938C18.4688 10.25 19 9.1875 19 8C19 5.5 16.5938 3.4375 13.4688 3.09375C12.5 1.28125 10.1875 0 7.5 0C3.90625 0 1 2.25 1 5C1 6.15625 1.5 7.21875 2.375 8.09375C1.875 9.03125 1.1875 9.78125 1.1875 9.8125C1 10 0.9375 10.3125 1.03125 10.5938C1.15625 10.8438 1.40625 11.0312 1.71875 11.0312C3.375 11.0312 4.71875 10.375 5.625 9.8125C5.90625 9.875 6.21875 9.90625 6.5 9.96875C7.5 11.75 9.78125 13 12.5 13C13.125 13 13.75 12.9375 14.3438 12.8125C15.25 13.375 16.5938 14 18.2812 14C18.5625 14 18.8125 13.8438 18.9375 13.5625C19.0312 13.3125 19 13 18.7812 12.7812C18.7812 12.7812 18.0938 12.0312 17.625 11.0938ZM5.34375 8.1875L4.8125 8.53125C4.375 8.84375 3.90625 9.0625 3.46875 9.21875C3.53125 9.0625 3.625 8.90625 3.71875 8.75L4.1875 7.78125L3.40625 7C3 6.59375 2.5 5.90625 2.5 5C2.5 3.125 4.78125 1.5 7.5 1.5C10.1875 1.5 12.5 3.125 12.5 5C12.5 6.90625 10.1875 8.5 7.5 8.5C6.96875 8.5 6.46875 8.46875 5.96875 8.34375L5.34375 8.1875ZM16.5625 10L15.7812 10.7812L16.2812 11.75C16.3438 11.9062 16.4375 12.0625 16.5312 12.2188C16.0625 12.0625 15.625 11.8125 15.1875 11.5312L14.625 11.1875L14.0312 11.3438C13.5312 11.4688 13 11.5 12.5 11.5C10.8125 11.5 9.28125 10.875 8.375 9.96875C11.5625 9.625 14 7.53125 14 5C14 4.90625 13.9688 4.8125 13.9688 4.6875C15.9688 5.15625 17.5 6.46875 17.5 8C17.5 8.90625 16.9688 9.59375 16.5625 10Z" fill="#05578F" fill-opacity="0.7"/>
</svg>
