<svg width="23" height="22" viewBox="0 0 23 22" fill="none" xmlns="http://www.w3.org/2000/svg">
<rect width="23" height="22" fill="#006BB4"/>
<path d="M7.82812 13.9141C7.82812 13.612 7.86719 13.3229 7.94531 13.0469H7.15625V11.8672H8.55469C8.91927 11.4349 9.44531 11.0495 10.1328 10.7109H7.15625V9.53125H12.5078C12.7839 9.26562 12.9219 8.92969 12.9219 8.52344C12.9219 8.17448 12.7969 7.90625 12.5469 7.71875C12.2969 7.52604 11.9349 7.42969 11.4609 7.42969C11.0703 7.42969 10.6693 7.47917 10.2578 7.57812C9.85156 7.67708 9.34115 7.85156 8.72656 8.10156L8.00781 6.21875C9.1901 5.68229 10.4062 5.41406 11.6562 5.41406C12.7917 5.41406 13.6797 5.6901 14.3203 6.24219C14.9661 6.78906 15.2891 7.5651 15.2891 8.57031C15.2891 8.91406 15.2448 9.23438 15.1562 9.53125H15.9766V10.7109H14.4844C14.2448 10.9766 13.9661 11.1979 13.6484 11.375C13.3359 11.5521 13.0078 11.7161 12.6641 11.8672H15.9766V13.0469H10.5078C10.3047 13.2812 10.2031 13.5703 10.2031 13.9141C10.2031 14.3047 10.3411 14.6094 10.6172 14.8281C10.8932 15.0469 11.3099 15.1562 11.8672 15.1562C12.9141 15.1562 14.0339 14.9115 15.2266 14.4219V16.4375C14.2474 16.9167 13.0781 17.1562 11.7188 17.1562C10.4688 17.1562 9.50781 16.8828 8.83594 16.3359C8.16406 15.7839 7.82812 14.9766 7.82812 13.9141Z" fill="white"/>
</svg>
