<svg width="19" height="19" viewBox="0 0 19 19" fill="none" xmlns="http://www.w3.org/2000/svg">
<rect x="9.00085" width="12.7291" height="12.7291" transform="rotate(45 9.00085 0)" fill="#888888" fill-opacity="0.2"/>
<path d="M1.88597e-05 9.00084L9.00085 18.0017V0L1.88597e-05 9.00084Z" fill="#369040"/>
<path d="M12.5984 10.1322C12.7645 10.5666 12.7535 11.0363 12.5652 11.4708C12.3887 11.8782 11.8219 12.4538 11.4579 12.6333C10.7824 13.0208 9.91865 13.2439 9.02169 13.2439C8.58982 13.2439 8.15796 13.1969 7.72609 13.0912H7.70394L7.43818 13.0208C5.39322 12.3992 5.29447 11.3762 5.28992 10.778C5.28992 10.4375 5.38958 10.0852 5.5889 9.76816C5.72178 9.5568 5.99862 9.49809 6.19795 9.63899C6.39727 9.7799 6.45264 10.0735 6.31975 10.2848C6.15365 10.5432 6.12043 10.8015 6.22009 11.0598C6.40834 11.5647 7.05061 11.9992 7.89219 12.2106H7.91434C9.39819 12.5746 11.1257 12.1401 11.6793 11.2594C11.8454 11.0128 11.8787 10.7545 11.779 10.4962C11.5907 9.99126 10.9485 9.5568 10.1069 9.34544L8.23547 8.88749C7.261 8.6409 6.5523 8.11249 6.29761 7.43144C6.12043 6.96175 6.1758 6.46857 6.45264 6.02236C7.0949 5.00078 8.82237 4.50761 10.3727 4.88336C11.2918 5.10646 12.2662 5.72881 12.2662 6.82084C12.2662 7.07917 12.0669 7.29053 11.8233 7.29053C11.5797 7.29053 11.3804 7.07917 11.3804 6.82084C11.3804 6.26895 10.727 5.92842 10.1733 5.78752C8.86666 5.47047 7.57106 5.91668 7.18349 6.52728C7.07275 6.71516 7.05061 6.89129 7.11705 7.07917C7.23886 7.37273 7.6375 7.76022 8.4348 7.95984L10.3062 8.41779C11.4579 8.69961 12.2995 9.32195 12.5984 10.1322Z" fill="white"/>
</svg>
