<svg width="18" height="18" viewBox="0 0 18 18" fill="none" xmlns="http://www.w3.org/2000/svg">
<rect x="8.99915" width="12.7267" height="12.7267" transform="rotate(45 8.99915 0)" fill="#888888" fill-opacity="0.2"/>
<path d="M12.5954 10.1302C12.7614 10.5646 12.7504 11.0342 12.5622 11.4686C12.3857 11.8759 11.819 12.4514 11.455 12.6308C10.7797 13.0183 9.91608 13.2413 9.01929 13.2413C8.5875 13.2413 8.15572 13.1944 7.72393 13.0887H7.70179L7.43607 13.0183C5.3915 12.3968 5.29276 11.374 5.28821 10.7759C5.28821 10.4354 5.38785 10.0832 5.58714 9.76625C5.71999 9.55493 5.99678 9.49623 6.19607 9.63711C6.39535 9.77799 6.45071 10.0715 6.31785 10.2828C6.15178 10.5411 6.11857 10.7994 6.21821 11.0577C6.40643 11.5625 7.04857 11.9969 7.89 12.2082H7.91214C9.39572 12.5721 11.1229 12.1378 11.6764 11.2572C11.8425 11.0107 11.8757 10.7524 11.7761 10.4941C11.5879 9.98931 10.9457 9.55493 10.1043 9.34361L8.23322 8.88574C7.25893 8.6392 6.55035 8.11089 6.29571 7.42997C6.11857 6.96036 6.17392 6.46728 6.45071 6.02115C7.09286 4.99976 8.82 4.50668 10.37 4.88236C11.2889 5.10542 12.2632 5.72765 12.2632 6.81948C12.2632 7.07776 12.0639 7.28909 11.8204 7.28909C11.5768 7.28909 11.3775 7.07776 11.3775 6.81948C11.3775 6.26769 10.7243 5.92723 10.1707 5.78635C8.86429 5.46937 7.56893 5.91549 7.18143 6.52598C7.07071 6.71382 7.04857 6.88992 7.115 7.07776C7.23679 7.37127 7.63536 7.75869 8.4325 7.95827L10.3036 8.41614C11.455 8.6979 12.2964 9.32013 12.5954 10.1302Z" fill="white"/>
</svg>
