<svg width="32" height="38" viewBox="0 0 32 38" fill="none" xmlns="http://www.w3.org/2000/svg">
<g filter="url(#filter0_d)">
<path d="M27.6946 9.07418L16.1109 3.06611C15.939 2.97683 15.7331 2.97808 15.5625 3.06924L4.29929 9.07731C4.11457 9.17598 4 9.36456 4 9.56973V17.4178C4.00676 23.8691 7.93355 29.7055 14.0062 32.2901L15.5696 32.9533C15.7157 33.0153 15.8821 33.0156 16.0285 32.9539L17.7901 32.2134C23.9754 29.6849 27.9994 23.7921 28 17.2621V9.56973C28 9.36236 27.8825 9.1716 27.6946 9.07418ZM21.6548 15.7075L14.56 21.3256C14.3174 21.5179 13.9611 21.4866 13.7578 21.2548L10.7115 17.7824C10.5045 17.5466 10.5332 17.1923 10.7755 16.9909C11.0178 16.7898 11.3818 16.8176 11.5887 17.0532L14.2691 20.1086L20.9265 14.8367C21.1737 14.6409 21.537 14.6772 21.7378 14.9178C21.9389 15.1584 21.9016 15.512 21.6544 15.7075H21.6548Z" fill="#00B2FF"/>
</g>
<rect x="9" y="12" width="15" height="12" fill="white"/>
<path d="M27.6946 9.07418L16.1109 3.06611C15.939 2.97683 15.7331 2.97808 15.5625 3.06924L4.29929 9.07731C4.11457 9.17598 4 9.36456 4 9.56973V17.4178C4.00676 23.8691 7.93355 29.7055 14.0062 32.2901L15.5696 32.9533C15.7157 33.0153 15.8821 33.0156 16.0285 32.9539L17.7901 32.2134C23.9754 29.6849 27.9994 23.7921 28 17.2621V9.56973C28 9.36236 27.8825 9.1716 27.6946 9.07418ZM21.6548 15.7075L14.56 21.3256C14.3174 21.5179 13.9611 21.4866 13.7578 21.2548L10.7115 17.7824C10.5045 17.5466 10.5332 17.1923 10.7755 16.9909C11.0178 16.7898 11.3818 16.8176 11.5887 17.0532L14.2691 20.1086L20.9265 14.8367C21.1737 14.6409 21.537 14.6772 21.7378 14.9178C21.9389 15.1584 21.9016 15.512 21.6544 15.7075H21.6548Z" fill="#05DA80"/>
<defs>
<filter id="filter0_d" x="0" y="0" width="32" height="38" filterUnits="userSpaceOnUse" color-interpolation-filters="sRGB">
<feFlood flood-opacity="0" result="BackgroundImageFix"/>
<feColorMatrix in="SourceAlpha" type="matrix" values="0 0 0 0 0 0 0 0 0 0 0 0 0 0 0 0 0 0 127 0"/>
<feOffset dy="1"/>
<feGaussianBlur stdDeviation="2"/>
<feColorMatrix type="matrix" values="0 0 0 0 0 0 0 0 0 0.698039 0 0 0 0 1 0 0 0 0.58 0"/>
<feBlend mode="normal" in2="BackgroundImageFix" result="effect1_dropShadow"/>
<feBlend mode="normal" in="SourceGraphic" in2="effect1_dropShadow" result="shape"/>
</filter>
</defs>
</svg>
