<svg width="20" height="21" viewBox="0 0 20 21" fill="none" xmlns="http://www.w3.org/2000/svg">
<path d="M10 0.8125C4.64844 0.8125 0.3125 5.1875 0.3125 10.5C0.3125 15.8516 4.64844 20.1875 10 20.1875C15.3125 20.1875 19.6875 15.8516 19.6875 10.5C19.6875 5.1875 15.3125 0.8125 10 0.8125ZM10 18.9375C5.35156 18.9375 1.5625 15.1875 1.5625 10.5C1.5625 5.89062 5.3125 2.0625 10 2.0625C14.6094 2.0625 18.4375 5.85156 18.4375 10.5C18.4375 15.1484 14.6484 18.9375 10 18.9375ZM15.5078 8.23438C15.7031 8.03906 15.7031 7.72656 15.5078 7.57031L15.1953 7.21875C15 7.02344 14.6875 7.02344 14.5312 7.21875L8.125 13.5469L5.42969 10.8516C5.27344 10.6562 4.96094 10.6562 4.76562 10.8516L4.45312 11.1641C4.25781 11.3594 4.25781 11.6328 4.45312 11.8281L7.8125 15.2266C7.96875 15.3828 8.28125 15.3828 8.47656 15.2266L15.5078 8.23438Z" fill="#1DC650"/>
</svg>
