<svg width="10" height="22" viewBox="0 0 10 22" fill="none" xmlns="http://www.w3.org/2000/svg">
<path d="M8.53125 13.4297C8.53125 14.2578 8.23177 14.9245 7.63281 15.4297C7.03385 15.9297 6.19531 16.2292 5.11719 16.3281V17.9297H4.04688V16.3594C2.77604 16.3333 1.66146 16.1094 0.703125 15.6875V13.625C1.15625 13.849 1.70052 14.0469 2.33594 14.2188C2.97656 14.3906 3.54688 14.4922 4.04688 14.5234V12.1016L3.52344 11.8984C2.49219 11.4922 1.76042 11.0521 1.32812 10.5781C0.901042 10.099 0.6875 9.50781 0.6875 8.80469C0.6875 8.04948 0.981771 7.42969 1.57031 6.94531C2.16406 6.45573 2.98958 6.15885 4.04688 6.05469V4.85938H5.11719V6.02344C6.3099 6.07552 7.38802 6.3151 8.35156 6.74219L7.61719 8.57031C6.80469 8.23698 5.97135 8.03385 5.11719 7.96094V10.2656C6.13281 10.6562 6.85417 10.9948 7.28125 11.2812C7.71354 11.5677 8.02865 11.8828 8.22656 12.2266C8.42969 12.5703 8.53125 12.9714 8.53125 13.4297ZM6.17969 13.5469C6.17969 13.3281 6.09115 13.1432 5.91406 12.9922C5.73698 12.8411 5.47135 12.6849 5.11719 12.5234V14.4688C5.82552 14.349 6.17969 14.0417 6.17969 13.5469ZM3.03906 8.80469C3.03906 9.03385 3.11719 9.22396 3.27344 9.375C3.4349 9.52083 3.69271 9.67188 4.04688 9.82812V7.99219C3.375 8.09115 3.03906 8.36198 3.03906 8.80469Z" fill="black"/>
</svg>
