<svg width="19" height="16" viewBox="0 0 19 16" fill="none" xmlns="http://www.w3.org/2000/svg">
<path d="M17.8828 2.71094C18.0059 2.71094 18.1289 2.66992 18.2109 2.58789C18.293 2.50586 18.375 2.38281 18.375 2.21875V0.90625C18.375 0.783203 18.293 0.660156 18.2109 0.578125C18.1289 0.496094 18.0059 0.414062 17.8828 0.414062H0.492188C0.328125 0.414062 0.205078 0.496094 0.123047 0.578125C0.0410156 0.660156 0 0.783203 0 0.90625V2.21875C0 2.38281 0.0410156 2.50586 0.123047 2.58789C0.205078 2.66992 0.328125 2.71094 0.492188 2.71094H17.8828ZM17.8828 9.27344C18.0059 9.27344 18.1289 9.23242 18.2109 9.15039C18.293 9.06836 18.375 8.94531 18.375 8.78125V7.46875C18.375 7.3457 18.293 7.22266 18.2109 7.14062C18.1289 7.05859 18.0059 6.97656 17.8828 6.97656H0.492188C0.328125 6.97656 0.205078 7.05859 0.123047 7.14062C0.0410156 7.22266 0 7.3457 0 7.46875V8.78125C0 8.94531 0.0410156 9.06836 0.123047 9.15039C0.205078 9.23242 0.328125 9.27344 0.492188 9.27344H17.8828ZM17.8828 15.8359C18.0059 15.8359 18.1289 15.7949 18.2109 15.7129C18.293 15.6309 18.375 15.5078 18.375 15.3438V14.0312C18.375 13.9082 18.293 13.7852 18.2109 13.7031C18.1289 13.6211 18.0059 13.5391 17.8828 13.5391H0.492188C0.328125 13.5391 0.205078 13.6211 0.123047 13.7031C0.0410156 13.7852 0 13.9082 0 14.0312V15.3438C0 15.5078 0.0410156 15.6309 0.123047 15.7129C0.205078 15.7949 0.328125 15.8359 0.492188 15.8359H17.8828Z" fill="#888888"/>
</svg>
