<svg width="14" height="15" viewBox="0 0 14 15" fill="none" xmlns="http://www.w3.org/2000/svg">
<path d="M13.4805 1.43358C13.6445 1.46092 13.7539 1.54295 13.8633 1.65233C13.9453 1.78905 14 1.92577 14 2.06248C14 4.35936 13.4258 6.49217 12.2774 8.46092C11.1289 10.375 9.62501 11.9062 7.71095 13.0273C5.7422 14.1758 3.60938 14.75 1.31251 14.75C1.14845 14.75 1.01173 14.7226 0.902353 14.6133C0.765634 14.5312 0.683603 14.3945 0.683603 14.2305L0.027353 11.3867C-0.0273345 11.25 9.29087e-06 11.1133 0.0820405 10.9492C0.136728 10.8125 0.246103 10.7031 0.410166 10.6484L3.47267 9.33592C3.58204 9.28123 3.71876 9.28123 3.88282 9.30858C4.01954 9.33592 4.12892 9.41795 4.23829 9.52733L5.57813 11.168C6.64454 10.6758 7.60157 10.0195 8.42188 9.17186C9.2422 8.35155 9.92579 7.39452 10.418 6.32811L8.77735 4.96092C8.66798 4.87889 8.58595 4.76952 8.5586 4.6328C8.50392 4.49608 8.53126 4.35936 8.58595 4.1953L9.89845 1.1328C9.95313 1.02342 10.0352 0.914047 10.1992 0.832016C10.3359 0.777329 10.4727 0.749985 10.6367 0.777329L13.4805 1.43358Z" fill="#006BB4"/>
</svg>
