<svg width="40" height="40" viewBox="0 0 40 40" fill="none" xmlns="http://www.w3.org/2000/svg">
<rect width="40" height="40" fill="#F69039"/>
<path d="M15.125 23.875C14.7734 23.875 14.4609 24.0312 14.2266 24.2656C13.9922 24.5 13.875 24.8125 13.875 25.125C13.875 25.4766 13.9922 25.7891 14.2266 26.0234C14.4609 26.2578 14.7734 26.375 15.125 26.375C15.4375 26.375 15.75 26.2578 15.9844 26.0234C16.2188 25.7891 16.375 25.4766 16.375 25.125C16.375 24.8125 16.2188 24.5 15.9844 24.2656C15.75 24.0312 15.4375 23.875 15.125 23.875ZM15.125 22C15.9844 22 16.6875 22.3125 17.3125 22.9375C17.9375 23.5625 18.25 24.2656 18.25 25.125C18.25 25.9844 17.9375 26.7266 17.3125 27.3516C16.6875 27.9766 15.9844 28.25 15.125 28.25C14.2656 28.25 13.5234 27.9766 12.8984 27.3516C12.2734 26.7266 12 25.9844 12 25.125C12 24.2656 12.2734 23.5625 12.8984 22.9375C13.5234 22.3125 14.2656 22 15.125 22ZM29.5 27.7812C29.5 27.9375 29.4219 28.0547 29.3438 28.1328C29.2656 28.2109 29.1484 28.25 29.0312 28.25H28.0938C27.9375 28.25 27.8203 28.2109 27.7422 28.1328C27.6641 28.0547 27.625 27.9375 27.625 27.7812C27.5469 25.0859 26.8047 22.5859 25.4375 20.2422C24.0703 17.9766 22.2734 16.1797 20.0078 14.8125C17.6641 13.4453 15.1641 12.7031 12.4688 12.625C12.3125 12.625 12.1953 12.5859 12.1172 12.5078C12.0391 12.4297 12 12.3125 12 12.1562V11.2188C12 11.1016 12.0391 10.9844 12.1172 10.9062C12.1953 10.8281 12.3125 10.75 12.4688 10.75C15.5156 10.8281 18.3281 11.6484 20.9453 13.2109C23.4844 14.7344 25.5156 16.7656 27.0391 19.2656C28.6016 21.9219 29.4219 24.7344 29.5 27.7812ZM24.1875 27.7812C24.1875 27.9375 24.1094 28.0547 24.0312 28.1328C23.9531 28.2109 23.8359 28.25 23.7188 28.25H22.7812C22.625 28.25 22.5078 28.2109 22.4297 28.1328C22.3516 28.0547 22.3125 27.9375 22.3125 27.8203C22.2344 26.0625 21.7266 24.4609 20.8281 22.9766C19.9297 21.4922 18.7578 20.3203 17.2734 19.4219C15.7891 18.5234 14.1875 18.0156 12.4297 17.9375C12.3125 17.9375 12.1953 17.8984 12.1172 17.8203C12.0391 17.7422 12 17.625 12 17.4688V16.5312C12 16.4141 12.0391 16.2969 12.1172 16.2188C12.1953 16.1406 12.3125 16.0625 12.4688 16.0625C14.5391 16.1406 16.4531 16.7266 18.2109 17.7812C19.9688 18.875 21.375 20.2812 22.4688 22C23.5234 23.7578 24.1094 25.6719 24.1875 27.7812Z" fill="white"/>
</svg>
