<svg width="40" height="40" viewBox="0 0 40 40" fill="none" xmlns="http://www.w3.org/2000/svg">
<rect width="40" height="40" fill="url(#paint0_linear)"/>
<path d="M28.207 14.004C28.293 13.4024 28.25 13.0157 27.9922 12.7579C27.7344 12.5001 27.3906 12.4571 26.9609 12.586L9.90235 19.1602C9.30079 19.418 9.00001 19.6759 9.00001 19.9337C8.95704 20.2345 9.17188 20.4493 9.68751 20.5782L14.0703 21.9532L24.2109 15.5509C24.3398 15.4649 24.4688 15.422 24.5977 15.422C24.7266 15.422 24.8125 15.422 24.8555 15.5079C24.8984 15.5938 24.8555 15.6368 24.7695 15.7227L16.5625 23.1563L16.2188 27.668C16.4336 27.668 16.6055 27.6251 16.7773 27.5391C16.8633 27.4962 16.9492 27.4102 17.1211 27.2384L19.2695 25.1759L23.6953 28.4415C24.082 28.6993 24.4258 28.7423 24.6836 28.6134C24.9414 28.4845 25.1563 28.1837 25.2852 27.668L28.207 14.004Z" fill="white"/>
<defs>
<linearGradient id="paint0_linear" x1="20" y1="0" x2="20" y2="40" gradientUnits="userSpaceOnUse">
<stop stop-color="#37B1E2"/>
<stop offset="1" stop-color="#1D95C9"/>
</linearGradient>
</defs>
</svg>
