<svg width="40" height="40" viewBox="0 0 40 40" fill="none" xmlns="http://www.w3.org/2000/svg">
<rect width="40" height="40" fill="url(#paint0_linear)"/>
<path d="M15.0966 29.2647C12.5333 29.2647 11.0098 27.7217 11.0098 25.1452V19.1771C11.0098 16.5933 12.5405 15.0576 15.0966 15.0576L24.9095 15.0576C27.4728 15.0576 28.9963 16.6006 28.9963 19.1771V25.1089C28.9963 27.6926 27.4656 29.2283 24.9095 29.2283L15.0966 29.2647ZM24.1296 18.3037C22.9333 18.3037 21.9635 19.2813 21.9635 20.4872C21.9635 21.6931 22.9333 22.6706 24.1296 22.6706C25.326 22.6706 26.2958 21.6931 26.2958 20.4872C26.2958 19.2813 25.326 18.3037 24.1296 18.3037ZM15.862 18.3037C14.6657 18.3037 13.6958 19.2813 13.6958 20.4872C13.6958 21.6931 14.6657 22.6706 15.862 22.6706C17.0584 22.6706 18.0282 21.6931 18.0282 20.4872C18.0282 19.2841 17.0628 18.3077 15.8692 18.3037H15.862Z" fill="url(#paint1_linear)"/>
<path d="M15.8689 22.6634C17.0613 22.6634 18.0279 21.6891 18.0279 20.4872C18.0279 19.2853 17.0613 18.311 15.8689 18.311C14.6766 18.311 13.71 19.2853 13.71 20.4872C13.71 21.6891 14.6766 22.6634 15.8689 22.6634Z" fill="white"/>
<path d="M15.87 21.9358C16.6636 21.9358 17.3069 21.2873 17.3069 20.4874C17.3069 19.6875 16.6636 19.0391 15.87 19.0391C15.0764 19.0391 14.4331 19.6875 14.4331 20.4874C14.4331 21.2873 15.0764 21.9358 15.87 21.9358Z" fill="url(#paint2_linear)"/>
<path d="M10.0787 24.8252C8.332 24.3152 7.32616 22.4746 7.83197 20.714C8.14607 19.6209 8.99404 18.7661 10.0787 18.4494L11.0029 18.1729V25.109L10.0787 24.8252Z" fill="url(#paint3_linear)"/>
<path d="M24.1302 22.6634C25.3225 22.6634 26.2891 21.6891 26.2891 20.4872C26.2891 19.2853 25.3225 18.311 24.1302 18.311C22.9378 18.311 21.9712 19.2853 21.9712 20.4872C21.9712 21.6891 22.9378 22.6634 24.1302 22.6634Z" fill="white"/>
<path d="M24.1303 21.9358C24.9238 21.9358 25.5672 21.2873 25.5672 20.4874C25.5672 19.6875 24.9238 19.0391 24.1303 19.0391C23.3367 19.0391 22.6934 19.6875 22.6934 20.4874C22.6934 21.2873 23.3367 21.9358 24.1303 21.9358Z" fill="url(#paint4_linear)"/>
<path d="M28.9966 18.2021L29.9208 18.4496C31.6675 18.9595 32.6733 20.8001 32.1675 22.5607C31.8534 23.6539 31.0055 24.5086 29.9208 24.8253L28.9966 25.1092V18.2021Z" fill="url(#paint5_linear)"/>
<path d="M20.0003 12.1612C20.9294 12.1612 21.6827 11.4019 21.6827 10.4654C21.6827 9.52878 20.9294 8.76953 20.0003 8.76953C19.0711 8.76953 18.3179 9.52878 18.3179 10.4654C18.3179 11.4019 19.0711 12.1612 20.0003 12.1612Z" fill="url(#paint6_linear)"/>
<path d="M15.8697 23.3909C17.4648 23.3909 18.7579 22.0875 18.7579 20.4797C18.7579 18.8718 17.4648 17.5684 15.8697 17.5684C14.2746 17.5684 12.9814 18.8718 12.9814 20.4797C12.9814 22.0875 14.2746 23.3909 15.8697 23.3909ZM15.8697 19.024C16.6673 19.024 17.3138 19.6757 17.3138 20.4797C17.3138 21.2836 16.6673 21.9353 15.8697 21.9353C15.0721 21.9353 14.4256 21.2836 14.4256 20.4797C14.4295 19.6786 15.075 19.0313 15.8697 19.0313V19.024Z" fill="white"/>
<path d="M24.1295 23.3909C25.7246 23.3909 27.0177 22.0875 27.0177 20.4797C27.0177 18.8718 25.7246 17.5684 24.1295 17.5684C22.5343 17.5684 21.2412 18.8718 21.2412 20.4797C21.2412 22.0875 22.5343 23.3909 24.1295 23.3909ZM24.1295 19.024C24.9271 19.024 25.5736 19.6757 25.5736 20.4797C25.5736 21.2836 24.9271 21.9353 24.1295 21.9353C23.3319 21.9353 22.6853 21.2836 22.6853 20.4797C22.6893 19.6786 23.3347 19.0313 24.1295 19.0313V19.024Z" fill="white"/>
<path d="M10.3021 25.6331C10.5187 28.8282 12.8727 30 15.0894 30H24.9094C28.2093 30 29.5306 27.8165 29.6967 25.6331C31.8821 25.2327 33.3318 23.1223 32.9344 20.9194C32.6229 19.1915 31.2428 17.8623 29.5162 17.627C29.0396 15.8511 27.6677 14.3372 24.9094 14.3372H20.7215V12.736C21.9882 12.3341 22.6917 10.9732 22.2929 9.69646C21.894 8.41977 20.5439 7.7105 19.2774 8.11254C18.0108 8.51457 17.3071 9.87541 17.706 11.1521C17.9418 11.907 18.5284 12.4984 19.2774 12.736V14.3009H15.0966C13.147 14.3009 11.0964 15.2034 10.4754 17.5906C8.27484 17.8951 6.73576 19.9401 7.03785 22.1582C7.27469 23.8975 8.59525 25.2853 10.3093 25.5967L10.3021 25.6331ZM31.5524 21.6373C31.5492 22.7921 30.7903 23.8062 29.6895 24.1265V19.1482C30.7903 19.4684 31.5492 20.4824 31.5524 21.6373ZM19.0391 10.4652C19.0391 9.93064 19.4691 9.49722 19.9994 9.49722C20.5298 9.49722 20.9598 9.93064 20.9598 10.4652C20.9598 10.9998 20.5298 11.4332 19.9994 11.4332C19.4691 11.4332 19.0391 10.9998 19.0391 10.4652ZM11.7246 19.1991C11.7246 16.2441 13.833 15.8074 15.0894 15.8074H24.9094C27.841 15.8074 28.2743 17.9327 28.2743 19.1991V25.109C28.2743 26.3754 27.8338 28.5007 24.9094 28.5007H15.0966C13.8402 28.5007 11.7318 28.0567 11.7318 25.109L11.7246 19.1991ZM10.2805 19.1991V24.1774C8.91657 23.78 8.1306 22.3435 8.52476 20.9688C8.76981 20.1142 9.43266 19.4461 10.2805 19.1991Z" fill="white"/>
<path d="M24.1294 25.3711H15.869C15.4703 25.3711 15.147 25.697 15.147 26.0989C15.147 26.5009 15.4703 26.8267 15.869 26.8267H24.1294C24.5282 26.8267 24.8515 26.5009 24.8515 26.0989C24.8515 25.697 24.5282 25.3711 24.1294 25.3711Z" fill="white"/>
<defs>
<linearGradient id="paint0_linear" x1="20" y1="0" x2="20" y2="40" gradientUnits="userSpaceOnUse">
<stop stop-color="#37B1E2"/>
<stop offset="1" stop-color="#1D95C9"/>
</linearGradient>
<linearGradient id="paint1_linear" x1="20.0031" y1="15.0576" x2="20.0031" y2="29.2647" gradientUnits="userSpaceOnUse">
<stop stop-color="#37B1E2"/>
<stop offset="1" stop-color="#1D95C9"/>
</linearGradient>
<linearGradient id="paint2_linear" x1="15.87" y1="19.0391" x2="15.87" y2="21.9358" gradientUnits="userSpaceOnUse">
<stop stop-color="#37B1E2"/>
<stop offset="1" stop-color="#1D95C9"/>
</linearGradient>
<linearGradient id="paint3_linear" x1="9.35204" y1="18.1729" x2="9.35204" y2="25.109" gradientUnits="userSpaceOnUse">
<stop stop-color="#37B1E2"/>
<stop offset="1" stop-color="#1D95C9"/>
</linearGradient>
<linearGradient id="paint4_linear" x1="24.1303" y1="19.0391" x2="24.1303" y2="21.9358" gradientUnits="userSpaceOnUse">
<stop stop-color="#37B1E2"/>
<stop offset="1" stop-color="#1D95C9"/>
</linearGradient>
<linearGradient id="paint5_linear" x1="30.6475" y1="18.2021" x2="30.6475" y2="25.1092" gradientUnits="userSpaceOnUse">
<stop stop-color="#37B1E2"/>
<stop offset="1" stop-color="#1D95C9"/>
</linearGradient>
<linearGradient id="paint6_linear" x1="20.0003" y1="8.76953" x2="20.0003" y2="12.1612" gradientUnits="userSpaceOnUse">
<stop stop-color="#37B1E2"/>
<stop offset="1" stop-color="#1D95C9"/>
</linearGradient>
</defs>
</svg>
