<svg width="40" height="40" viewBox="0 0 40 40" fill="none" xmlns="http://www.w3.org/2000/svg">
<rect width="40" height="40" fill="#FB0101"/>
<path d="M30.4844 15.3438C30.6406 16.0469 30.7969 17.1406 30.875 18.5469L30.9141 20.5L30.875 22.4531C30.7969 23.9375 30.6406 24.9922 30.4844 25.6953C30.3281 26.1641 30.0938 26.5547 29.7812 26.8672C29.4297 27.2188 29.0391 27.4531 28.5703 27.5703C27.8672 27.7656 26.3047 27.8828 23.8047 27.9609L20.25 28L16.6953 27.9609C14.1953 27.8828 12.5938 27.7656 11.9297 27.5703C11.4609 27.4531 11.0312 27.2188 10.7188 26.8672C10.3672 26.5547 10.1328 26.1641 10.0156 25.6953C9.82031 24.9922 9.70312 23.9375 9.625 22.4531L9.58594 20.5C9.58594 19.9531 9.58594 19.2891 9.625 18.5469C9.70312 17.1406 9.82031 16.0469 10.0156 15.3438C10.1328 14.875 10.3672 14.4844 10.7188 14.1328C11.0312 13.8203 11.4609 13.5859 11.9297 13.4297C12.5938 13.2734 14.1953 13.1172 16.6953 13.0391L20.25 13L23.8047 13.0391C26.3047 13.1172 27.8672 13.2734 28.5703 13.4297C29.0391 13.5859 29.4297 13.8203 29.7812 14.1328C30.0938 14.4844 30.3281 14.875 30.4844 15.3438ZM18.0625 23.7031L23.6484 20.5L18.0625 17.3359V23.7031Z" fill="white"/>
</svg>
