<svg width="64" height="64" viewBox="0 0 64 64" fill="none" xmlns="http://www.w3.org/2000/svg">
<circle cx="32" cy="32" r="32" fill="#006BB4" fill-opacity="0.1"/>
<circle cx="32" cy="32" r="31.5" stroke="#006BB4" stroke-opacity="0.2"/>
<path d="M49.4338 37.5992C50.2391 39.7495 50.1854 42.0742 49.2727 44.2245C48.4168 46.2409 45.669 49.0896 43.904 49.978C40.629 51.8958 36.4414 53 32.0927 53C29.9989 53 27.9051 52.7675 25.8113 52.2445H25.7039L24.4154 51.8958C14.5009 48.8193 14.0221 43.7563 14 40.7956C14 39.1103 14.4832 37.3668 15.4496 35.7976C16.0938 34.7516 17.436 34.461 18.4024 35.1584C19.3688 35.8558 19.6372 37.3087 18.9929 38.3548C18.1876 39.6333 18.0266 40.9119 18.5098 42.1904C19.4224 44.6894 22.5363 46.8397 26.6166 47.8858H26.7239C33.9181 49.6874 42.2933 47.5371 44.9777 43.1784C45.783 41.9579 45.9441 40.6794 45.4609 39.4008C44.5482 36.9018 41.4343 34.7516 37.3541 33.7055L28.2809 31.4389C23.5564 30.2185 20.1204 27.6033 18.8856 24.2326C18.0266 21.9079 18.295 19.467 19.6372 17.2586C22.7511 12.2025 31.1263 9.76166 38.6426 11.6214C43.0986 12.7256 47.8231 15.8057 47.8231 21.2105C47.8231 22.4891 46.8568 23.5352 45.6756 23.5352C44.4945 23.5352 43.5281 22.4891 43.5281 21.2105C43.5281 18.4791 40.3606 16.7937 37.6762 16.0963C31.3411 14.5272 25.0596 16.7356 23.1806 19.7576C22.6437 20.6875 22.5363 21.5592 22.8584 22.4891C23.449 23.942 25.3818 25.8598 29.2473 26.8478L38.3204 29.1143C43.9039 30.5091 47.9842 33.5892 49.4338 37.5992Z" fill="#006BB4" fill-opacity="0.2"/>
</svg>
